<?xml version="1.0"?>
<svg xmlns="http://www.w3.org/2000/svg" xmlns:xlink="http://www.w3.org/1999/xlink" version="1.1" id="Capa_1" x="0px" y="0px" width="512px" height="512px" viewBox="0 0 31.168 31.168" style="enable-background:new 0 0 31.168 31.168;" xml:space="preserve" class=""><g><g>
	<path d="M0,0v31.168h31.168V0H0z M27.123,10.53c0.531,0.303,0.9,0.755,0.9,1.587c0,0.951-0.767,1.636-1.647,1.636   c-0.354,0-0.565-0.086-0.899-0.269c-3.16-1.896-8.067-2.94-12.812-2.94c-2.368,0-4.774,0.241-6.978,0.839   c-0.255,0.064-0.573,0.191-0.896,0.191c-0.932,0-1.646-0.736-1.646-1.669c0-0.949,0.588-1.483,1.221-1.668   c2.49-0.735,5.27-1.076,8.291-1.076C17.785,7.161,23.184,8.217,27.123,10.53z M6.16,21.934c-0.664,0-1.106-0.524-1.106-1.097   c0-0.733,0.424-1.1,0.95-1.2c2.158-0.492,4.306-0.771,6.536-0.771c3.823,0,7.229,0.878,10.159,2.634   c0.437,0.254,0.693,0.515,0.693,1.161c0,0.63-0.514,1.092-1.086,1.092c-0.285,0-0.478-0.098-0.74-0.258   c-2.532-1.533-5.688-2.336-9.038-2.336c-1.87,0-3.75,0.238-5.509,0.604C6.734,21.825,6.375,21.934,6.16,21.934z M4.329,15.576   c0-0.743,0.36-1.253,1.085-1.458c1.964-0.541,3.969-0.953,6.888-0.953c4.571,0,8.994,1.137,12.472,3.218   c0.582,0.334,0.797,0.76,0.797,1.381c0,0.756-0.602,1.367-1.361,1.367c-0.378,0-0.617-0.154-0.873-0.304   c-2.843-1.687-6.779-2.806-11.092-2.806c-2.212,0-4.122,0.309-5.701,0.729c-0.341,0.096-0.531,0.194-0.85,0.194   C4.941,16.945,4.329,16.334,4.329,15.576z" data-original="#000000" class="active-path" data-old_color="#1db954" fill="#1db954"/>
</g></g> </svg>
